<svg xmlns="http://www.w3.org/2000/svg" xmlns:xlink="http://www.w3.org/1999/xlink" viewBox="0 0 75.26 55.4"><defs><style>.cls-1{isolation:isolate;}.cls-2{fill:#2e4593;}.cls-3{fill:#fcf5ff;}.cls-4{fill:#f42525;}.cls-5{fill:#fff;}.cls-6{fill:#cd002a;}.cls-7{mix-blend-mode:multiply;}.cls-7,.cls-8{fill:url(#linear-gradient);}.cls-8{opacity:0.25;mix-blend-mode:overlay;}</style><linearGradient id="linear-gradient" x1="0.04" y1="27.64" x2="75.12" y2="27.64" gradientUnits="userSpaceOnUse"><stop offset="0" stop-color="#fff"/><stop offset="0.13" stop-color="#f7f7f7"/><stop offset="0.34" stop-color="#e0e0e1"/><stop offset="0.54" stop-color="#c4c5c6"/><stop offset="0.57" stop-color="#c1c2c3"/><stop offset="0.69" stop-color="#bebfc0"/><stop offset="0.91" stop-color="#fff"/></linearGradient></defs><g class="cls-1"><g id="Layer_2" data-name="Layer 2"><g id="Capa_1" data-name="Capa 1"><path class="cls-2" d="M75.22,4.17V51.28h0c-25-14.1-50.09,14.15-75.14.07V4.24C25.12,18.32,50.16-9.94,75.22,4.17Z"/><path class="cls-3" d="M75.22,46.38v4.9h0a31.68,31.68,0,0,0-7.82-3.12C59.7,41.44,52,37.88,44.32,35L42,34.18l-2.72-1-.91-.32L35.6,32l-1-.37-.87-.3c-.58-.2-1.16-.4-1.74-.62l-.57-.21-.84-.31c-2.73-1-5.46-2.14-8.19-3.47-1.23-.59-2.46-1.23-3.69-1.91A66.18,66.18,0,0,1,.07,9.15V4.24l.06-.07a1.43,1.43,0,0,0,.15.18,30.85,30.85,0,0,0,7.61,3c7.83,6.85,15.67,10.42,23.5,13.3l2.31.83.63.22L38,23l.37.13,1.41.49c.74.26,1.49.51,2.22.78l.38.13,1.93.71q.95.34,1.89.72c1.68.65,3.37,1.34,5.06,2.11,1.22.56,2.45,1.15,3.68,1.8A65.66,65.66,0,0,1,75.22,46.38Z"/><path class="cls-4" d="M75.22,51.16a1.11,1.11,0,0,0,0,.17,32.23,32.23,0,0,0-5-2.32C61.58,40.55,53,36.46,44.32,33.25c-.73-.28-1.47-.54-2.2-.8a.23.23,0,0,0-.11,0c-.73-.27-1.48-.53-2.22-.79l-1.35-.47L36,30.31l-2.28-.79-.32-.11L32,28.89l-.57-.2c-2.07-.76-4.14-1.58-6.21-2.48-1.22-.54-2.45-1.11-3.68-1.72A65.64,65.64,0,0,1,.07,7.37V4.13l.06,0a1.43,1.43,0,0,0,.15.18A65.93,65.93,0,0,0,26.72,23.59c1.22.51,2.44,1,3.67,1.46l1,.37,2.31.83.87.31,1.41.49,2.61.9c1.14.39,2.28.78,3.42,1.19l.38.14,1.26.45.67.25c1,.37,2,.76,3,1.16A66.24,66.24,0,0,1,75.22,51.16Z"/><path class="cls-3" d="M75.22,5.11V10c-5.71.36-11.43,2.93-17.14,6.69q-1.84,1.22-3.67,2.58c-2.74,2-5.47,4.28-8.2,6.65l-1.89,1.63-1.93,1.72-.38.34-.86.78-1.36,1.23-1.41,1.28-.92.83q-1.87,1.71-3.76,3.41l-2.31,2.06c-7.34,6.51-14.69,12.42-22,15.58A30.72,30.72,0,0,1,.07,51.35v-4c7.25-.47,14.49-4.48,21.74-10,1.23-.93,2.45-1.91,3.68-2.92,1.68-1.38,3.37-2.83,5.06-4.31l.84-.76c.19-.16.39-.33.57-.5l1.74-1.56.87-.77,3.81-3.46.37-.34,3.26-3,.42-.37,1.89-1.69C52.5,10.53,60.68,4.12,68.86,1.45a31.4,31.4,0,0,1,5.77,2.4C74.82,4.27,75,4.69,75.22,5.11Z"/><path class="cls-4" d="M75,5.24c-8.19.59-16.37,5.69-24.56,12.33-1.23,1-2.45,2-3.68,3.07-.82.71-1.64,1.42-2.46,2.15L42.39,24.5l-.38.35L38.59,28,36,30.31l-1.41,1.28-.87.79-.17.15c-.71.64-1.42,1.28-2.14,1.91-.51.46-1,.92-1.55,1.36C20.48,44,11.12,50.94,1.76,52.24,1.2,52,.63,51.67.07,51.35v-2.2c8.19-.54,16.38-5.6,24.57-12.22,1.23-1,2.45-2,3.68-3.07,1-.89,2.05-1.78,3.07-2.69.19-.17.39-.33.57-.5l1.42-1.26.32-.3L36,27.05l3.81-3.46L41.57,22c.15-.14.3-.26.44-.4.77-.7,1.54-1.38,2.31-2.06l.93-.82C54.06,11,62.87,4.35,71.68,2.45Q73,3,74.29,3.68c.31.15.62.32.93.49v1Z"/><path class="cls-5" d="M75.26,33.7C50.17,19.52,25.09,47.87,0,33.7V20.77c25.09,14.17,50.17-14.17,75.26,0Z"/><path class="cls-4" d="M75.26,31.39C50.17,17.22,25.09,45.56,0,31.39V23.08c25.09,14.17,50.17-14.18,75.26,0Z"/><path class="cls-6" d="M42,3V50.09c-2.76.75-5.54,1.57-8.31,2.32V5.29C36.47,4.54,39.25,3.73,42,3Z"/><path class="cls-5" d="M42,32.48l2.3-.62V49.49C40,50.59,35.69,51.91,31.38,53V35.41c.77-.2,1.53-.4,2.3-.62V21.87c-.77.21-1.53.42-2.3.61V5.92C35.69,4.79,40,3.48,44.3,2.37V18.94l-2.3.61Z"/><path class="cls-4" d="M42,3V50.09c-2.8.76-5.6,1.57-8.4,2.34V5.31C36.44,4.54,39.24,3.73,42,3Z"/><path class="cls-7" d="M75.12,19.57V35.43a0,0,0,0,1,0,0V51.17c-25-14.07-50,14.14-75.06,0V4.07c25,14.15,50-14.09,75.06,0v15.5A0,0,0,0,0,75.12,19.57Z"/><path class="cls-8" d="M75.12,19.57V35.43a0,0,0,0,1,0,0V51.17c-25-14.07-50,14.14-75.06,0V4.07c25,14.15,50-14.09,75.06,0v15.5A0,0,0,0,0,75.12,19.57Z"/></g></g></g></svg>